<?xml version="1.0" standalone="no"?>
<!DOCTYPE svg PUBLIC "-//W3C//DTD SVG 20010904//EN"
 "http://www.w3.org/TR/2001/REC-SVG-20010904/DTD/svg10.dtd">
<svg version="1.0" xmlns="http://www.w3.org/2000/svg"
 width="180.000000pt" height="180.000000pt" viewBox="0 0 180.000000 180.000000"
 preserveAspectRatio="xMidYMid meet">
<metadata>
Created by potrace 1.11, written by Peter Selinger 2001-2013
</metadata>
<g transform="translate(0.000000,180.000000) scale(0.100000,-0.100000)"
fill="#000000" stroke="none">
<path d="M0 900 l0 -900 900 0 900 0 0 900 0 900 -900 0 -900 0 0 -900z m1630
555 c0 -96 1 -178 3 -182 1 -5 -53 -9 -120 -11 l-121 -3 -17 51 c-33 98 -138
186 -270 226 -94 29 -308 26 -400 -4 -124 -41 -200 -113 -231 -218 l-15 -54
-140 0 -139 0 0 185 0 185 725 0 725 0 0 -175z m-560 3 c61 -15 94 -32 141
-75 78 -71 84 -91 87 -325 2 -115 1 -208 -1 -208 -2 0 -24 11 -49 25 -46 26
-176 63 -318 90 -170 33 -241 60 -304 116 -73 64 -85 176 -30 266 68 110 277
158 474 111z m-405 -520 c39 -18 122 -41 211 -59 189 -38 288 -76 353 -135 59
-53 75 -95 68 -174 -15 -174 -157 -259 -410 -248 -83 4 -114 10 -159 30 -107
49 -183 153 -207 282 -6 33 -11 140 -11 239 l0 180 46 -43 c25 -23 74 -55 109
-72z m-40 -633 c100 -60 181 -80 320 -79 137 1 221 19 303 65 l52 29 0 -80 0
-80 -395 0 -395 0 0 117 0 117 28 -26 c15 -15 54 -43 87 -63z"/>
</g>
</svg>
