<?xml version="1.0" encoding="utf-8"?>
<!-- Generator: Adobe Illustrator 22.1.0, SVG Export Plug-In . SVG Version: 6.00 Build 0)  -->
<svg version="1.1" id="Layer_1" xmlns="http://www.w3.org/2000/svg" xmlns:xlink="http://www.w3.org/1999/xlink" x="0px" y="0px"
	 viewBox="0 0 40 20" style="enable-background:new 0 0 40 20;" xml:space="preserve">
<style type="text/css">
	.st0{fill:#FFFFFF;}
</style>
<g>
	<path class="st0" d="M38,2v16H2V2H38 M40,0H0v20h40V0L40,0z"/>
</g>
<g>
	<path class="st0" d="M8.6,5.5l1.6,6.2l1.6-6.2h2.3V14h-1.7v-2.3l0.2-3.6L10.8,14H9.6L7.9,8.1l0.2,3.6V14H6.4V5.5H8.6z"/>
	<path class="st0" d="M21.3,10.5c0,1.1-0.3,2-0.8,2.7s-1.3,0.9-2.3,0.9c-1,0-1.7-0.3-2.3-0.9c-0.5-0.6-0.8-1.5-0.8-2.6V9.1
		c0-1.2,0.3-2.1,0.8-2.7c0.5-0.7,1.3-1,2.3-1c0.9,0,1.7,0.3,2.2,1s0.8,1.6,0.8,2.7V10.5z M19.6,9.1c0-0.8-0.1-1.3-0.3-1.7
		s-0.6-0.6-1-0.6c-0.5,0-0.8,0.2-1,0.5S16.9,8.3,16.9,9v1.5c0,0.7,0.1,1.3,0.3,1.6s0.6,0.5,1,0.5c0.4,0,0.8-0.2,1-0.5
		s0.3-0.9,0.3-1.6V9.1z"/>
	<path class="st0" d="M25,10.9h-0.9V14h-1.7V5.5h2.7c0.9,0,1.5,0.2,2,0.7s0.7,1.1,0.7,1.9c0,1.1-0.4,1.9-1.2,2.4l1.5,3.5V14h-1.9
		L25,10.9z M24.1,9.5h1c0.3,0,0.6-0.1,0.8-0.3s0.3-0.5,0.3-0.9c0-0.9-0.3-1.3-1-1.3h-1V9.5z"/>
	<path class="st0" d="M33.5,10.3h-2.7v2.3H34V14h-4.9V5.5H34v1.4h-3.2v2h2.7V10.3z"/>
</g>
</svg>
